<?xml version="1.0" standalone="no"?>
<!DOCTYPE svg PUBLIC "-//W3C//DTD SVG 20010904//EN"
 "http://www.w3.org/TR/2001/REC-SVG-20010904/DTD/svg10.dtd">
<svg version="1.0" xmlns="http://www.w3.org/2000/svg"
 width="323.000000pt" height="222.000000pt" viewBox="0 0 323.000000 222.000000"
 preserveAspectRatio="xMidYMid meet">
<metadata>
Created by potrace 1.16, written by Peter Selinger 2001-2019
</metadata>
<g transform="translate(0.000000,222.000000) scale(0.100000,-0.100000)"
fill="#000000" stroke="none">
<path d="M477 1053 c-4 -3 -7 -161 -7 -350 l0 -343 100 0 101 0 -2 253 -1 252
224 2 223 2 0 93 0 93 -316 3 c-173 1 -318 -1 -322 -5z"/>
<path d="M1217 1053 c-4 -3 -7 -161 -7 -350 l0 -344 258 3 c243 3 260 4 306
26 72 33 113 67 151 126 105 165 48 407 -116 491 -89 46 -151 55 -376 55 -115
0 -213 -3 -216 -7z m489 -209 c54 -40 69 -71 69 -137 0 -49 -5 -69 -24 -96
-36 -51 -73 -61 -215 -61 l-124 0 -4 153 c-3 83 -3 156 0 160 2 5 64 7 137 5
116 -3 137 -6 161 -24z"/>
<path d="M2182 1045 c-152 -47 -204 -229 -98 -344 60 -65 98 -75 304 -77 108
-1 188 -6 194 -12 5 -5 8 -20 6 -33 l-3 -24 -270 -5 -270 -5 -3 -93 -3 -93
308 3 c305 3 308 3 347 27 57 36 96 103 96 167 0 79 -9 110 -46 152 -59 70
-83 76 -301 78 -105 1 -197 5 -202 9 -15 8 -14 48 1 63 9 9 84 12 275 12 l263
0 0 95 0 95 -277 -1 c-202 0 -290 -4 -321 -14z"/>
<path d="M863 782 l-153 -3 0 -79 0 -80 200 0 201 0 -3 81 -3 81 -45 1 c-25 1
-114 1 -197 -1z"/>
</g>
</svg>
